<svg xmlns="http://www.w3.org/2000/svg" viewBox="0 0 980 648" width="980" height="648" role="img" font-family='ui-sans-serif, system-ui, "Segoe UI", Helvetica, Arial, sans-serif'><style>@media (prefers-color-scheme: dark){.f-surface{fill:#1a1a19}.s-surface{stroke:#1a1a19}.f-ink{fill:#ffffff}.s-ink{stroke:#ffffff}.f-ink2{fill:#c3c2b7}.s-ink2{stroke:#c3c2b7}.f-grid{fill:#44443f}.s-grid{stroke:#44443f}.f-s1{fill:#3987e5}.s-s1{stroke:#3987e5}.f-s2{fill:#d95926}.s-s2{stroke:#d95926}.f-s3{fill:#199e70}.s-s3{stroke:#199e70}.f-on1{fill:#ffffff}.s-on1{stroke:#ffffff}}.bar:hover{opacity:.75}</style><rect class="f-surface" width="980" height="648" fill="#fcfcfb"/><text x="40.0" y="40.0" font-size="21" text-anchor="start" class="f-ink" fill="#0b0b0b" font-weight="650">Ce que le fichier stocke comme magnitude, rapporté à la norme du bloc</text><text x="40.0" y="66.0" font-size="14.5" text-anchor="start" class="f-ink2" fill="#52514e">20 000 blocs gaussiens, encodeur de production Tetra, un bit de gain. Banc sphgeom, graine 0xf1b20260922.</text><line x1="120.0" y1="368.0" x2="910.0" y2="368.0" class="s-grid" stroke="#dedcd6" stroke-width="1" stroke-linecap="round"/><text x="108.0" y="373.0" font-size="13" text-anchor="end" class="f-ink2" fill="#52514e">2 %</text><line x1="120.0" y1="316.0" x2="910.0" y2="316.0" class="s-grid" stroke="#dedcd6" stroke-width="1" stroke-linecap="round"/><text x="108.0" y="321.0" font-size="13" text-anchor="end" class="f-ink2" fill="#52514e">4 %</text><line x1="120.0" y1="264.0" x2="910.0" y2="264.0" class="s-grid" stroke="#dedcd6" stroke-width="1" stroke-linecap="round"/><text x="108.0" y="269.0" font-size="13" text-anchor="end" class="f-ink2" fill="#52514e">6 %</text><line x1="120.0" y1="212.0" x2="910.0" y2="212.0" class="s-grid" stroke="#dedcd6" stroke-width="1" stroke-linecap="round"/><text x="108.0" y="217.0" font-size="13" text-anchor="end" class="f-ink2" fill="#52514e">8 %</text><line x1="120.0" y1="160.0" x2="910.0" y2="160.0" class="s-grid" stroke="#dedcd6" stroke-width="1" stroke-linecap="round"/><text x="108.0" y="165.0" font-size="13" text-anchor="end" class="f-ink2" fill="#52514e">10 %</text><rect x="264.2" y="419.7" width="7.9" height="0.3" rx="3" class="bar f-s1" fill="#2a78d6"><title>0.688 : 2 blocs, 0.01 %</title></rect><rect x="283.9" y="419.2" width="7.9" height="0.8" rx="3" class="bar f-s1" fill="#2a78d6"><title>0.713 : 6 blocs, 0.03 %</title></rect><rect x="303.7" y="418.3" width="7.9" height="1.7" rx="3" class="bar f-s1" fill="#2a78d6"><title>0.738 : 13 blocs, 0.07 %</title></rect><rect x="323.4" y="416.5" width="7.9" height="3.5" rx="3" class="bar f-s1" fill="#2a78d6"><title>0.762 : 27 blocs, 0.14 %</title></rect><rect x="343.2" y="413.2" width="7.9" height="6.8" rx="3" class="bar f-s1" fill="#2a78d6"><title>0.787 : 52 blocs, 0.26 %</title></rect><rect x="362.9" y="406.7" width="7.9" height="13.3" rx="3" class="bar f-s1" fill="#2a78d6"><title>0.812 : 102 blocs, 0.51 %</title></rect><rect x="382.7" y="399.3" width="7.9" height="20.7" rx="3" class="bar f-s1" fill="#2a78d6"><title>0.838 : 159 blocs, 0.80 %</title></rect><rect x="402.4" y="389.3" width="7.9" height="30.7" rx="3" class="bar f-s1" fill="#2a78d6"><title>0.863 : 236 blocs, 1.18 %</title></rect><rect x="422.2" y="235.7" width="7.9" height="184.3" rx="3" class="bar f-s1" fill="#2a78d6"><title>0.887 : 1418 blocs, 7.09 %</title></rect><rect x="441.9" y="173.9" width="7.9" height="246.1" rx="3" class="bar f-s1" fill="#2a78d6"><title>0.912 : 1893 blocs, 9.46 %</title></rect><rect x="461.7" y="160.8" width="7.9" height="259.2" rx="3" class="bar f-s1" fill="#2a78d6"><title>0.938 : 1994 blocs, 9.97 %</title></rect><rect x="481.4" y="153.9" width="7.9" height="266.1" rx="3" class="bar f-s1" fill="#2a78d6"><title>0.963 : 2047 blocs, 10.23 %</title></rect><rect x="501.2" y="152.7" width="7.9" height="267.3" rx="3" class="bar f-s1" fill="#2a78d6"><title>0.988 : 2056 blocs, 10.28 %</title></rect><rect x="520.9" y="168.6" width="7.9" height="251.4" rx="3" class="bar f-s1" fill="#2a78d6"><title>1.012 : 1934 blocs, 9.67 %</title></rect><rect x="540.7" y="176.4" width="7.9" height="243.6" rx="3" class="bar f-s1" fill="#2a78d6"><title>1.038 : 1874 blocs, 9.37 %</title></rect><rect x="560.4" y="182.5" width="7.9" height="237.5" rx="3" class="bar f-s1" fill="#2a78d6"><title>1.062 : 1827 blocs, 9.13 %</title></rect><rect x="580.2" y="189.0" width="7.9" height="231.0" rx="3" class="bar f-s1" fill="#2a78d6"><title>1.087 : 1777 blocs, 8.88 %</title></rect><rect x="599.9" y="254.9" width="7.9" height="165.1" rx="3" class="bar f-s1" fill="#2a78d6"><title>1.113 : 1270 blocs, 6.35 %</title></rect><rect x="619.7" y="380.2" width="7.9" height="39.8" rx="3" class="bar f-s1" fill="#2a78d6"><title>1.137 : 306 blocs, 1.53 %</title></rect><rect x="639.4" y="388.4" width="7.9" height="31.6" rx="3" class="bar f-s1" fill="#2a78d6"><title>1.163 : 243 blocs, 1.21 %</title></rect><rect x="659.2" y="394.8" width="7.9" height="25.2" rx="3" class="bar f-s1" fill="#2a78d6"><title>1.188 : 194 blocs, 0.97 %</title></rect><rect x="678.9" y="403.8" width="7.9" height="16.2" rx="3" class="bar f-s1" fill="#2a78d6"><title>1.212 : 125 blocs, 0.62 %</title></rect><rect x="698.7" y="406.7" width="7.9" height="13.3" rx="3" class="bar f-s1" fill="#2a78d6"><title>1.238 : 102 blocs, 0.51 %</title></rect><rect x="718.4" y="408.3" width="7.9" height="11.7" rx="3" class="bar f-s1" fill="#2a78d6"><title>1.262 : 90 blocs, 0.45 %</title></rect><rect x="738.2" y="412.1" width="7.9" height="7.9" rx="3" class="bar f-s1" fill="#2a78d6"><title>1.288 : 61 blocs, 0.30 %</title></rect><rect x="757.9" y="411.6" width="7.9" height="8.4" rx="3" class="bar f-s1" fill="#2a78d6"><title>1.312 : 65 blocs, 0.33 %</title></rect><rect x="777.7" y="415.3" width="7.9" height="4.7" rx="3" class="bar f-s1" fill="#2a78d6"><title>1.337 : 36 blocs, 0.18 %</title></rect><rect x="797.4" y="417.0" width="7.9" height="3.0" rx="3" class="bar f-s1" fill="#2a78d6"><title>1.363 : 23 blocs, 0.11 %</title></rect><rect x="817.2" y="417.7" width="7.9" height="2.3" rx="3" class="bar f-s1" fill="#2a78d6"><title>1.387 : 18 blocs, 0.09 %</title></rect><rect x="836.9" y="417.8" width="7.9" height="2.2" rx="3" class="bar f-s1" fill="#2a78d6"><title>1.413 : 17 blocs, 0.08 %</title></rect><rect x="856.7" y="419.0" width="7.9" height="1.0" rx="3" class="bar f-s1" fill="#2a78d6"><title>1.438 : 8 blocs, 0.04 %</title></rect><rect x="876.4" y="419.5" width="7.9" height="0.5" rx="3" class="bar f-s1" fill="#2a78d6"><title>1.462 : 4 blocs, 0.02 %</title></rect><rect x="896.2" y="419.4" width="7.9" height="0.6" rx="3" class="bar f-s1" fill="#2a78d6"><title>1.488 : 5 blocs, 0.03 %</title></rect><rect x="283.9" y="419.6" width="7.9" height="0.4" rx="3" class="bar f-s1" fill="#2a78d6"><title>0.713 : 3 blocs, 0.01 %</title></rect><rect x="303.7" y="419.1" width="7.9" height="0.9" rx="3" class="bar f-s1" fill="#2a78d6"><title>0.738 : 7 blocs, 0.03 %</title></rect><rect x="323.4" y="416.5" width="7.9" height="3.5" rx="3" class="bar f-s1" fill="#2a78d6"><title>0.762 : 27 blocs, 0.14 %</title></rect><rect x="343.2" y="413.2" width="7.9" height="6.8" rx="3" class="bar f-s1" fill="#2a78d6"><title>0.787 : 52 blocs, 0.26 %</title></rect><rect x="362.9" y="408.8" width="7.9" height="11.2" rx="3" class="bar f-s1" fill="#2a78d6"><title>0.812 : 86 blocs, 0.43 %</title></rect><rect x="382.7" y="396.6" width="7.9" height="23.4" rx="3" class="bar f-s1" fill="#2a78d6"><title>0.838 : 180 blocs, 0.90 %</title></rect><rect x="402.4" y="388.2" width="7.9" height="31.8" rx="3" class="bar f-s1" fill="#2a78d6"><title>0.863 : 245 blocs, 1.23 %</title></rect><rect x="422.2" y="248.1" width="7.9" height="171.9" rx="3" class="bar f-s1" fill="#2a78d6"><title>0.887 : 1322 blocs, 6.61 %</title></rect><rect x="441.9" y="158.4" width="7.9" height="261.6" rx="3" class="bar f-s1" fill="#2a78d6"><title>0.912 : 2012 blocs, 10.06 %</title></rect><rect x="461.7" y="150.0" width="7.9" height="270.0" rx="3" class="bar f-s1" fill="#2a78d6"><title>0.938 : 2077 blocs, 10.38 %</title></rect><rect x="481.4" y="164.7" width="7.9" height="255.3" rx="3" class="bar f-s1" fill="#2a78d6"><title>0.963 : 1964 blocs, 9.82 %</title></rect><rect x="501.2" y="165.6" width="7.9" height="254.4" rx="3" class="bar f-s1" fill="#2a78d6"><title>0.988 : 1957 blocs, 9.79 %</title></rect><rect x="520.9" y="172.5" width="7.9" height="247.5" rx="3" class="bar f-s1" fill="#2a78d6"><title>1.012 : 1904 blocs, 9.52 %</title></rect><rect x="540.7" y="172.0" width="7.9" height="248.0" rx="3" class="bar f-s1" fill="#2a78d6"><title>1.038 : 1908 blocs, 9.54 %</title></rect><rect x="560.4" y="177.0" width="7.9" height="243.0" rx="3" class="bar f-s1" fill="#2a78d6"><title>1.062 : 1869 blocs, 9.35 %</title></rect><rect x="580.2" y="185.6" width="7.9" height="234.4" rx="3" class="bar f-s1" fill="#2a78d6"><title>1.087 : 1803 blocs, 9.01 %</title></rect><rect x="599.9" y="265.2" width="7.9" height="154.8" rx="3" class="bar f-s1" fill="#2a78d6"><title>1.113 : 1191 blocs, 5.96 %</title></rect><rect x="619.7" y="378.9" width="7.9" height="41.1" rx="3" class="bar f-s1" fill="#2a78d6"><title>1.137 : 316 blocs, 1.58 %</title></rect><rect x="639.4" y="387.5" width="7.9" height="32.5" rx="3" class="bar f-s1" fill="#2a78d6"><title>1.163 : 250 blocs, 1.25 %</title></rect><rect x="659.2" y="393.2" width="7.9" height="26.8" rx="3" class="bar f-s1" fill="#2a78d6"><title>1.188 : 206 blocs, 1.03 %</title></rect><rect x="678.9" y="399.2" width="7.9" height="20.8" rx="3" class="bar f-s1" fill="#2a78d6"><title>1.212 : 160 blocs, 0.80 %</title></rect><rect x="698.7" y="405.6" width="7.9" height="14.4" rx="3" class="bar f-s1" fill="#2a78d6"><title>1.238 : 111 blocs, 0.56 %</title></rect><rect x="718.4" y="407.9" width="7.9" height="12.1" rx="3" class="bar f-s1" fill="#2a78d6"><title>1.262 : 93 blocs, 0.46 %</title></rect><rect x="738.2" y="411.8" width="7.9" height="8.2" rx="3" class="bar f-s1" fill="#2a78d6"><title>1.288 : 63 blocs, 0.32 %</title></rect><rect x="757.9" y="413.9" width="7.9" height="6.1" rx="3" class="bar f-s1" fill="#2a78d6"><title>1.312 : 47 blocs, 0.24 %</title></rect><rect x="777.7" y="415.8" width="7.9" height="4.2" rx="3" class="bar f-s1" fill="#2a78d6"><title>1.337 : 32 blocs, 0.16 %</title></rect><rect x="797.4" y="416.8" width="7.9" height="3.2" rx="3" class="bar f-s1" fill="#2a78d6"><title>1.363 : 25 blocs, 0.12 %</title></rect><rect x="817.2" y="417.7" width="7.9" height="2.3" rx="3" class="bar f-s1" fill="#2a78d6"><title>1.387 : 18 blocs, 0.09 %</title></rect><rect x="836.9" y="417.5" width="7.9" height="2.5" rx="3" class="bar f-s1" fill="#2a78d6"><title>1.413 : 19 blocs, 0.10 %</title></rect><rect x="856.7" y="418.7" width="7.9" height="1.3" rx="3" class="bar f-s1" fill="#2a78d6"><title>1.438 : 10 blocs, 0.05 %</title></rect><rect x="876.4" y="418.4" width="7.9" height="1.6" rx="3" class="bar f-s1" fill="#2a78d6"><title>1.462 : 12 blocs, 0.06 %</title></rect><rect x="896.2" y="418.7" width="7.9" height="1.3" rx="3" class="bar f-s1" fill="#2a78d6"><title>1.488 : 10 blocs, 0.05 %</title></rect><line x1="120.0" y1="420.0" x2="910.0" y2="420.0" class="s-ink2" stroke="#52514e" stroke-width="1.6" stroke-linecap="round"/><line x1="199.0" y1="420.0" x2="199.0" y2="426.0" class="s-ink2" stroke="#52514e" stroke-width="1.6" stroke-linecap="round"/><text x="199.0" y="446.0" font-size="14" text-anchor="middle" class="f-ink" fill="#0b0b0b">0,6</text><line x1="357.0" y1="420.0" x2="357.0" y2="426.0" class="s-ink2" stroke="#52514e" stroke-width="1.6" stroke-linecap="round"/><text x="357.0" y="446.0" font-size="14" text-anchor="middle" class="f-ink" fill="#0b0b0b">0,8</text><line x1="515.0" y1="420.0" x2="515.0" y2="426.0" class="s-ink2" stroke="#52514e" stroke-width="1.6" stroke-linecap="round"/><text x="515.0" y="446.0" font-size="14" text-anchor="middle" class="f-ink" fill="#0b0b0b">1,0</text><line x1="673.0" y1="420.0" x2="673.0" y2="426.0" class="s-ink2" stroke="#52514e" stroke-width="1.6" stroke-linecap="round"/><text x="673.0" y="446.0" font-size="14" text-anchor="middle" class="f-ink" fill="#0b0b0b">1,2</text><line x1="831.0" y1="420.0" x2="831.0" y2="426.0" class="s-ink2" stroke="#52514e" stroke-width="1.6" stroke-linecap="round"/><text x="831.0" y="446.0" font-size="14" text-anchor="middle" class="f-ink" fill="#0b0b0b">1,4</text><text x="515.0" y="472.0" font-size="16" text-anchor="middle" class="f-ink" fill="#0b0b0b" font-weight="600">ĝ / ‖x‖</text><line x1="515.0" y1="110.0" x2="515.0" y2="420.0" class="s-s3" stroke="#1baf7a" stroke-width="3" stroke-linecap="round"/><text x="527.0" y="106.0" font-size="15" text-anchor="start" class="f-s3" fill="#1baf7a" font-weight="650">magnitude exacte : les 20 000 blocs sont ici</text><text x="527.0" y="126.0" font-size="13" text-anchor="start" class="f-ink2" fill="#52514e">le cas à 0 bit de gain, et ce que la rétraction du papier fabrique</text><line x1="447.7" y1="508.0" x2="593.1" y2="508.0" class="s-ink2" stroke="#52514e" stroke-width="2" stroke-linecap="round"/><line x1="447.7" y1="502.0" x2="447.7" y2="514.0" class="s-ink2" stroke="#52514e" stroke-width="2" stroke-linecap="round"/><line x1="593.1" y1="502.0" x2="593.1" y2="514.0" class="s-ink2" stroke="#52514e" stroke-width="2" stroke-linecap="round"/><text x="520.4" y="529.0" font-size="13" text-anchor="middle" class="f-ink2" fill="#52514e">un écart-type de part et d’autre : 0,092</text><text x="40.0" y="578.0" font-size="15" text-anchor="start" class="f-ink" fill="#0b0b0b" font-weight="600">moyenne 1,007  ·  écart-type 0,092  ·  p1 0,824  ·  p50 1,000  ·  p99 1,297</text><text x="40.0" y="604.0" font-size="13.5" text-anchor="start" class="f-ink2" fill="#52514e">L’énergie de cet écart vaut 8,7 % de l’erreur que le fichier porte, et c’est exactement ce que sph cache à la boucle.</text><text x="40.0" y="626.0" font-size="13.5" text-anchor="start" class="f-ink2" fill="#52514e">À 0 bit de gain il vaut zéro pour tout bloc, par construction : le test norm_preserving_direction_code_makes_the_flag_inert le mesure à 1e-12.</text></svg>